<mxfile host="Electron" modified="2023-09-29T13:30:03.256Z" agent="Mozilla/5.0 (Macintosh; Intel Mac OS X 10_15_7) AppleWebKit/537.36 (KHTML, like Gecko) draw.io/21.7.5 Chrome/114.0.5735.289 Electron/25.8.1 Safari/537.36" etag="vqL5bYiHBgKi-DhB4rEG" version="21.7.5" type="device">
  <diagram name="Page-1" id="SZJaXg89xZWWo9kZn6C0">
    <mxGraphModel dx="713" dy="837" grid="1" gridSize="10" guides="1" tooltips="1" connect="1" arrows="1" fold="1" page="1" pageScale="1" pageWidth="850" pageHeight="1100" math="0" shadow="0">
      <root>
        <mxCell id="0" />
        <mxCell id="1" parent="0" />
        <mxCell id="6wpSpjFva26ED7BOlQvb-4" style="edgeStyle=orthogonalEdgeStyle;rounded=0;orthogonalLoop=1;jettySize=auto;html=1;entryX=0.5;entryY=0;entryDx=0;entryDy=0;dashed=1;endArrow=open;endFill=0;" parent="1" target="6wpSpjFva26ED7BOlQvb-5" edge="1">
          <mxGeometry relative="1" as="geometry">
            <mxPoint x="550" y="480" as="targetPoint" />
            <Array as="points">
              <mxPoint x="470" y="404" />
              <mxPoint x="470" y="430" />
              <mxPoint x="400" y="430" />
            </Array>
            <mxPoint x="480" y="404" as="sourcePoint" />
          </mxGeometry>
        </mxCell>
        <mxCell id="6wpSpjFva26ED7BOlQvb-1" value="&lt;span style=&quot;font-weight: normal;&quot;&gt;LogController&lt;/span&gt;" style="swimlane;fontStyle=1;align=center;verticalAlign=middle;childLayout=stackLayout;horizontal=1;startSize=29;horizontalStack=0;resizeParent=1;resizeParentMax=0;resizeLast=0;collapsible=0;marginBottom=0;html=1;whiteSpace=wrap;" parent="1" vertex="1">
          <mxGeometry x="410" y="350" width="140" height="54" as="geometry" />
        </mxCell>
        <mxCell id="6wpSpjFva26ED7BOlQvb-5" value="&lt;span style=&quot;font-weight: 400;&quot;&gt;UserDAO&lt;/span&gt;" style="swimlane;fontStyle=1;align=center;verticalAlign=middle;childLayout=stackLayout;horizontal=1;startSize=29;horizontalStack=0;resizeParent=1;resizeParentMax=0;resizeLast=0;collapsible=0;marginBottom=0;html=1;whiteSpace=wrap;" parent="1" vertex="1">
          <mxGeometry x="330" y="560" width="140" height="54" as="geometry" />
        </mxCell>
        <mxCell id="6wpSpjFva26ED7BOlQvb-6" value="&lt;span style=&quot;font-weight: 400;&quot;&gt;User&lt;/span&gt;" style="swimlane;fontStyle=1;align=center;verticalAlign=middle;childLayout=stackLayout;horizontal=1;startSize=29;horizontalStack=0;resizeParent=1;resizeParentMax=0;resizeLast=0;collapsible=0;marginBottom=0;html=1;whiteSpace=wrap;" parent="1" vertex="1">
          <mxGeometry x="330" y="680" width="140" height="54" as="geometry" />
        </mxCell>
        <mxCell id="bxEX8peMHohiDi9vdA_6-1" value="&lt;span style=&quot;font-weight: 400;&quot;&gt;EmailSender&lt;/span&gt;" style="swimlane;fontStyle=1;align=center;verticalAlign=middle;childLayout=stackLayout;horizontal=1;startSize=29;horizontalStack=0;resizeParent=1;resizeParentMax=0;resizeLast=0;collapsible=0;marginBottom=0;html=1;whiteSpace=wrap;" parent="1" vertex="1">
          <mxGeometry x="210" y="470" width="140" height="54" as="geometry" />
        </mxCell>
        <mxCell id="bxEX8peMHohiDi9vdA_6-2" style="edgeStyle=orthogonalEdgeStyle;rounded=0;orthogonalLoop=1;jettySize=auto;html=1;dashed=1;endArrow=open;endFill=0;exitX=0;exitY=0.75;exitDx=0;exitDy=0;entryX=0.5;entryY=0;entryDx=0;entryDy=0;" parent="1" edge="1" target="bxEX8peMHohiDi9vdA_6-1" source="6wpSpjFva26ED7BOlQvb-1">
          <mxGeometry relative="1" as="geometry">
            <mxPoint x="290" y="460" as="targetPoint" />
            <mxPoint x="390" y="390" as="sourcePoint" />
            <Array as="points">
              <mxPoint x="360" y="390" />
              <mxPoint x="360" y="420" />
              <mxPoint x="280" y="420" />
            </Array>
          </mxGeometry>
        </mxCell>
        <mxCell id="mfA7BFumORZUVEk0uCeb-2" value="" style="endArrow=open;html=1;rounded=0;entryX=0.5;entryY=0;entryDx=0;entryDy=0;exitX=0.5;exitY=1;exitDx=0;exitDy=0;dashed=1;endFill=0;" parent="1" source="6wpSpjFva26ED7BOlQvb-5" target="6wpSpjFva26ED7BOlQvb-6" edge="1">
          <mxGeometry width="50" height="50" relative="1" as="geometry">
            <mxPoint x="500" y="580" as="sourcePoint" />
            <mxPoint x="550" y="530" as="targetPoint" />
          </mxGeometry>
        </mxCell>
        <mxCell id="fOhHv5eRRV8w1Aue95Fo-1" style="edgeStyle=orthogonalEdgeStyle;rounded=0;orthogonalLoop=1;jettySize=auto;html=1;entryX=0.5;entryY=0;entryDx=0;entryDy=0;dashed=1;endArrow=open;endFill=0;exitX=1;exitY=0.75;exitDx=0;exitDy=0;" parent="1" target="fOhHv5eRRV8w1Aue95Fo-2" edge="1">
          <mxGeometry relative="1" as="geometry">
            <mxPoint x="630" y="479.5" as="targetPoint" />
            <Array as="points">
              <mxPoint x="490" y="404" />
              <mxPoint x="490" y="430" />
              <mxPoint x="560" y="430" />
            </Array>
            <mxPoint x="520" y="404.0000000000001" as="sourcePoint" />
          </mxGeometry>
        </mxCell>
        <mxCell id="fOhHv5eRRV8w1Aue95Fo-2" value="&lt;span style=&quot;font-weight: 400;&quot;&gt;UserDAO&lt;/span&gt;" style="swimlane;fontStyle=1;align=center;verticalAlign=middle;childLayout=stackLayout;horizontal=1;startSize=29;horizontalStack=0;resizeParent=1;resizeParentMax=0;resizeLast=0;collapsible=0;marginBottom=0;html=1;whiteSpace=wrap;" parent="1" vertex="1">
          <mxGeometry x="490" y="560" width="140" height="54" as="geometry" />
        </mxCell>
        <mxCell id="VGCNgPOF-yupTJZxwngM-1" style="edgeStyle=orthogonalEdgeStyle;rounded=0;orthogonalLoop=1;jettySize=auto;html=1;dashed=1;endArrow=open;endFill=0;exitX=1;exitY=0.75;exitDx=0;exitDy=0;entryX=0.5;entryY=0;entryDx=0;entryDy=0;" edge="1" parent="1" source="6wpSpjFva26ED7BOlQvb-1" target="VGCNgPOF-yupTJZxwngM-3">
          <mxGeometry relative="1" as="geometry">
            <mxPoint x="770" y="520" as="targetPoint" />
            <Array as="points">
              <mxPoint x="600" y="390" />
              <mxPoint x="600" y="420" />
              <mxPoint x="680" y="420" />
            </Array>
            <mxPoint x="570" y="380.0000000000001" as="sourcePoint" />
          </mxGeometry>
        </mxCell>
        <mxCell id="VGCNgPOF-yupTJZxwngM-3" value="&lt;span style=&quot;font-weight: 400;&quot;&gt;Generator&lt;/span&gt;" style="swimlane;fontStyle=1;align=center;verticalAlign=middle;childLayout=stackLayout;horizontal=1;startSize=29;horizontalStack=0;resizeParent=1;resizeParentMax=0;resizeLast=0;collapsible=0;marginBottom=0;html=1;whiteSpace=wrap;" vertex="1" parent="1">
          <mxGeometry x="610" y="470" width="140" height="54" as="geometry" />
        </mxCell>
      </root>
    </mxGraphModel>
  </diagram>
</mxfile>
